<?xml version="1.0" standalone="no"?>
<!DOCTYPE svg PUBLIC "-//W3C//DTD SVG 20010904//EN"
 "http://www.w3.org/TR/2001/REC-SVG-20010904/DTD/svg10.dtd">
<svg version="1.0" xmlns="http://www.w3.org/2000/svg"
 width="512.000000pt" height="512.000000pt" viewBox="0 0 512.000000 512.000000"
 preserveAspectRatio="xMidYMid meet">
<metadata>
Created by potrace 1.11, written by Peter Selinger 2001-2013
</metadata>
<g transform="translate(0.000000,512.000000) scale(0.100000,-0.100000)"
fill="#000000" stroke="none">
<path d="M680 5098 c-88 -38 -138 -92 -169 -182 -11 -32 -13 -362 -13 -1865 0
-1004 2 -1844 5 -1866 3 -22 9 -65 12 -95 26 -216 119 -474 234 -644 129 -190
290 -315 499 -385 88 -29 118 -36 227 -51 33 -5 754 -9 1603 -9 l1542 -1 1 22
c4 132 -1 730 -6 770 -31 221 -205 417 -417 468 -76 18 -95 18 -550 19 l-448
1 0 109 c0 105 1 110 22 116 92 27 274 134 373 218 288 245 446 576 457 959
l2 78 36 11 c186 60 269 404 155 646 -14 28 -29 55 -35 58 -5 3 -7 31 -4 63
11 125 6 347 -10 419 -65 295 -236 553 -497 747 -79 59 -274 168 -354 197 -87
32 -163 52 -280 74 -175 33 -396 34 -590 5 -132 -20 -316 -70 -385 -105 -14
-7 -43 -21 -65 -31 -103 -48 -254 -149 -313 -210 -34 -35 -65 -64 -70 -64 -4
0 -7 73 -8 163 -1 194 -15 239 -96 312 -79 71 -95 74 -478 73 -310 0 -338 -2
-380 -20z m890 -2825 c0 -33 125 -275 163 -316 7 -6 25 -30 41 -52 55 -75 194
-202 293 -267 86 -56 246 -138 271 -138 5 0 8 -50 8 -110 l0 -110 -426 2 -425
3 1 30 c7 134 25 454 40 680 10 161 12 187 13 248 1 36 5 56 11 52 6 -3 10
-13 10 -22z"/>
</g>
</svg>
